<svg width="410" height="24" viewBox="0 0 410 24" fill="none" xmlns="http://www.w3.org/2000/svg">
<g clip-path="url(#clip0_17003_7)">
<path d="M47.35 -0.25C48.1167 -0.25 48.8667 -0.116667 49.6 0.149999C50.3333 0.383333 50.9833 0.733333 51.55 1.2C52.1167 1.63333 52.5667 2.18333 52.9 2.85C53.2333 3.51667 53.4 4.25 53.4 5.05V9.2C53.4 10.0667 53.2333 10.8333 52.9 11.5C52.5667 12.1333 52.1167 12.6833 51.55 13.15C50.9833 13.5833 50.3333 13.9167 49.6 14.15C48.8667 14.3833 48.1167 14.5 47.35 14.5H6.4V24H0V-0.25H47.35ZM6.4 5.05V9.2H44.7C45.2667 9.2 45.7833 9.08333 46.25 8.85C46.75 8.61667 47 8.16667 47 7.5V6.95C47 6.25 46.7667 5.76667 46.3 5.5C45.8667 5.2 45.3167 5.05 44.65 5.05H6.4Z" fill="white"/>
<path d="M106.774 -0.25C107.541 -0.25 108.29 -0.116667 109.024 0.149999C109.757 0.383333 110.407 0.733333 110.974 1.2C111.54 1.63333 111.99 2.18333 112.324 2.85C112.657 3.51667 112.824 4.25 112.824 5.05V18.7C112.824 19.5667 112.657 20.3333 112.324 21C111.99 21.6333 111.54 22.1833 110.974 22.65C110.407 23.0833 109.757 23.4167 109.024 23.65C108.29 23.8833 107.541 24 106.774 24H65.4738C64.7072 24 63.9572 23.8833 63.2238 23.65C62.4905 23.4167 61.8405 23.0833 61.2738 22.65C60.7072 22.1833 60.2572 21.6333 59.9238 21C59.5905 20.3333 59.4238 19.5667 59.4238 18.7V5.05C59.4238 4.21667 59.5905 3.46667 59.9238 2.8C60.2572 2.13333 60.7072 1.58333 61.2738 1.15C61.8405 0.683333 62.4905 0.333333 63.2238 0.1C63.9572 -0.133333 64.7072 -0.25 65.4738 -0.25H106.774ZM104.124 18.7C104.724 18.7 105.257 18.5 105.724 18.1C106.19 17.6667 106.424 17.1167 106.424 16.45V7.3C106.424 6.63333 106.224 6.1 105.824 5.7C105.457 5.26667 104.907 5.05 104.174 5.05H68.0738C67.2405 5.05 66.6572 5.26667 66.3238 5.7C65.9905 6.1 65.8238 6.63333 65.8238 7.3V16.45C65.8238 17.1167 66.0238 17.6667 66.4238 18.1C66.8238 18.5 67.3238 18.7 67.9238 18.7H104.124Z" fill="white"/>
<path d="M166.198 -0.25C166.964 -0.25 167.714 -0.116667 168.448 0.149999C169.181 0.383333 169.831 0.733333 170.398 1.2C170.964 1.63333 171.414 2.18333 171.748 2.85C172.081 3.51667 172.248 4.25 172.248 5.05V9.2C172.248 10.6333 171.814 11.7833 170.948 12.65C170.114 13.5167 169.048 14.0833 167.748 14.35L172.298 24H165.748L160.648 14.5H125.248V24H118.848V-0.25H166.198ZM125.248 5.05V9.2H163.548C164.148 9.2 164.681 9.1 165.148 8.9C165.614 8.66667 165.848 8.21667 165.848 7.55V7C165.848 6.3 165.631 5.8 165.198 5.5C164.798 5.2 164.231 5.05 163.498 5.05H125.248Z" fill="white"/>
<path d="M178.271 18.7H222.971C223.571 18.7 224.105 18.55 224.571 18.25C225.038 17.95 225.271 17.4667 225.271 16.8V16.35C225.271 15.65 225.071 15.1667 224.671 14.9C224.305 14.6333 223.755 14.5 223.021 14.5H184.271C183.471 14.5 182.705 14.3833 181.971 14.15C181.238 13.9167 180.588 13.5833 180.021 13.15C179.488 12.6833 179.055 12.1333 178.721 11.5C178.421 10.8333 178.271 10.0667 178.271 9.2V5.05C178.271 4.21667 178.421 3.46667 178.721 2.8C179.055 2.13333 179.488 1.58333 180.021 1.15C180.588 0.683333 181.238 0.333333 181.971 0.1C182.705 -0.133333 183.471 -0.25 184.271 -0.25H231.671V5.05H186.921C186.188 5.05 185.621 5.18333 185.221 5.45C184.855 5.68333 184.671 6.15 184.671 6.85V7.3C184.671 7.96667 184.905 8.45 185.371 8.75C185.838 9.05 186.371 9.2 186.971 9.2H225.671C226.471 9.2 227.221 9.33333 227.921 9.6C228.655 9.83333 229.288 10.1833 229.821 10.65C230.388 11.1167 230.838 11.6833 231.171 12.35C231.505 13.0167 231.671 13.75 231.671 14.55V18.7C231.671 19.5667 231.505 20.3333 231.171 21C230.838 21.6333 230.388 22.1833 229.821 22.65C229.288 23.0833 228.655 23.4167 227.921 23.65C227.221 23.8833 226.471 24 225.671 24H178.271V18.7Z" fill="white"/>
<path d="M243.745 -0.25H285.045C285.812 -0.25 286.562 -0.116667 287.295 0.149999C288.029 0.383333 288.679 0.733333 289.245 1.2C289.812 1.63333 290.262 2.18333 290.595 2.85C290.929 3.51667 291.095 4.25 291.095 5.05V8.7H284.695V7.3C284.695 6.63333 284.495 6.1 284.095 5.7C283.729 5.26667 283.179 5.05 282.445 5.05H246.345C245.512 5.05 244.929 5.26667 244.595 5.7C244.262 6.1 244.095 6.63333 244.095 7.3V16.45C244.095 17.1167 244.295 17.6667 244.695 18.1C245.095 18.5 245.595 18.7 246.195 18.7H282.395C282.995 18.7 283.529 18.5 283.995 18.1C284.462 17.6667 284.695 17.1167 284.695 16.45V15H291.095V18.7C291.095 19.5667 290.929 20.3333 290.595 21C290.262 21.6333 289.812 22.1833 289.245 22.65C288.679 23.0833 288.029 23.4167 287.295 23.65C286.562 23.8833 285.812 24 285.045 24H243.745C242.979 24 242.229 23.8833 241.495 23.65C240.762 23.4167 240.112 23.0833 239.545 22.65C238.979 22.1833 238.529 21.6333 238.195 21C237.862 20.3333 237.695 19.5667 237.695 18.7V5.05C237.695 4.21667 237.862 3.46667 238.195 2.8C238.529 2.13333 238.979 1.58333 239.545 1.15C240.112 0.683333 240.762 0.333333 241.495 0.1C242.229 -0.133333 242.979 -0.25 243.745 -0.25Z" fill="white"/>
<path d="M303.519 -0.25V9.2H344.119V-0.25H350.519V24H344.119V14.5H303.519V24H297.119V-0.25H303.519Z" fill="white"/>
<path d="M362.943 18.7H409.943V24H356.543V-0.25H409.943V5.05H362.943V9.2H409.943V14.5H362.943V18.7Z" fill="white"/>
</g>
<defs>
<clipPath id="clip0_17003_7">
<rect width="410" height="24" fill="white"/>
</clipPath>
</defs>
</svg>
