<svg width="4149" height="198" viewBox="0 0 4149 198" fill="none" xmlns="http://www.w3.org/2000/svg">
<path d="M0 150.8V10.8H55.6C65.2 10.8 73.8667 12.5333 81.6 16C89.3333 19.4667 95.4 24.4667 99.8 31C104.333 37.5333 106.6 45.3333 106.6 54.4C106.6 63.3333 104.4 71.1333 100 77.8C95.7333 84.3333 89.7333 89.4 82 93C74.4 96.6 65.6 98.4 55.6 98.4H31.6V150.8H0ZM31.6 71.4H54.8C62.2667 71.4 67.4 69.7333 70.2 66.4C73.1333 62.9333 74.6 58.9333 74.6 54.4C74.6 50.1333 73.1333 46.3333 70.2 43C67.4 39.5333 62.2667 37.8 54.8 37.8H31.6V71.4Z" fill="white"/>
<path d="M130.959 42.8C125.759 42.8 121.293 40.9333 117.559 37.2C113.826 33.4667 111.959 29 111.959 23.8C111.959 18.6 113.826 14.1333 117.559 10.4C121.293 6.66666 125.759 4.8 130.959 4.8C136.426 4.8 140.959 6.66666 144.559 10.4C148.159 14.1333 149.959 18.6 149.959 23.8C149.959 29 148.159 33.4667 144.559 37.2C140.959 40.9333 136.426 42.8 130.959 42.8ZM115.559 150.8V51.6H146.359V150.8H115.559Z" fill="white"/>
<path d="M158.039 150.8V126.6L199.239 76.6H158.439V51.6H234.239V75.8L192.039 125.8H235.039V150.8H158.039Z" fill="white"/>
<path d="M239.875 150.8V126.6L281.075 76.6H240.275V51.6H316.075V75.8L273.875 125.8H316.875V150.8H239.875Z" fill="white"/>
<path d="M355.311 153.2C349.578 153.2 344.244 152.067 339.311 149.8C334.378 147.4 330.378 144 327.311 139.6C324.378 135.067 322.911 129.6 322.911 123.2C322.911 115.867 324.844 109.933 328.711 105.4C332.578 100.733 337.711 97.3333 344.111 95.2C350.644 93.0667 357.778 92 365.511 92H387.911C387.911 88.5333 387.311 85.4667 386.111 82.8C384.911 80.1333 383.111 78.0667 380.711 76.6C378.311 75 375.311 74.2 371.711 74.2C367.978 74.2 364.578 75 361.511 76.6C358.444 78.2 356.511 80.9333 355.711 84.8H325.911C326.444 77.4667 328.911 71.2 333.311 66C337.711 60.6667 343.311 56.5333 350.111 53.6C357.044 50.6667 364.444 49.2 372.311 49.2C381.511 49.2 389.578 50.9333 396.511 54.4C403.578 57.7333 409.044 62.6 412.911 69C416.778 75.2667 418.711 82.8667 418.711 91.8V117.2C418.711 120.133 419.111 122.4 419.911 124C420.844 125.6 423.178 126.4 426.911 126.4V150.8C420.511 150.8 415.178 150.4 410.911 149.6C406.644 148.8 403.044 147.333 400.111 145.2C397.178 142.933 394.511 139.667 392.111 135.4C387.711 141.267 382.511 145.733 376.511 148.8C370.511 151.733 363.444 153.2 355.311 153.2ZM366.111 129.6C369.978 129.6 373.511 128.8 376.711 127.2C380.044 125.467 382.711 123.067 384.711 120C386.711 116.933 387.711 113.467 387.711 109.6V108.4H368.711C366.044 108.4 363.578 108.8 361.311 109.6C359.044 110.267 357.244 111.4 355.911 113C354.578 114.467 353.911 116.533 353.911 119.2C353.911 123.067 355.178 125.8 357.711 127.4C360.244 128.867 363.044 129.6 366.111 129.6Z" fill="white"/>
<path d="M549.873 194.8V137.2C546.54 142.667 542.14 146.733 536.673 149.4C531.207 151.933 525.207 153.2 518.673 153.2C509.34 153.2 501.34 150.8 494.673 146C488.007 141.2 482.873 134.867 479.273 127C475.807 119 474.073 110.333 474.073 101C474.073 91.6667 475.873 83.0667 479.473 75.2C483.073 67.3333 488.207 61.0667 494.873 56.4C501.54 51.6 509.473 49.2 518.673 49.2C524.94 49.2 530.873 50.5333 536.473 53.2C542.073 55.7333 546.54 59.5333 549.873 64.6V51.6H580.873V194.8H549.873ZM527.673 126.2C531.807 126.2 535.54 125.2 538.873 123.2C542.207 121.2 544.873 118.333 546.873 114.6C548.873 110.733 549.873 106.267 549.873 101.2C549.873 96.2667 548.94 91.9333 547.073 88.2C545.207 84.4667 542.607 81.5333 539.273 79.4C535.94 77.2667 532.073 76.2 527.673 76.2C524.34 76.2 520.94 77 517.473 78.6C514.14 80.2 511.34 82.8667 509.073 86.6C506.807 90.2 505.673 95 505.673 101C505.673 105.667 506.54 109.933 508.273 113.8C510.14 117.533 512.673 120.533 515.873 122.8C519.207 125.067 523.14 126.2 527.673 126.2Z" fill="white"/>
<path d="M629.489 153.2C621.222 153.2 614.222 151.4 608.489 147.8C602.889 144.067 598.622 139 595.689 132.6C592.889 126.067 591.489 118.667 591.489 110.4V51.6H622.089V106.6C622.089 112.733 623.622 117.733 626.689 121.6C629.756 125.467 634.356 127.4 640.489 127.4C646.622 127.4 651.222 125.467 654.289 121.6C657.356 117.733 658.889 112.733 658.889 106.6V51.6H689.689V150.8H658.889V138.4C655.422 143.333 651.156 147.067 646.089 149.6C641.022 152 635.489 153.2 629.489 153.2Z" fill="white"/>
<path d="M749.683 153.2C740.483 153.2 732.016 151.267 724.283 147.4C716.55 143.4 710.349 137.533 705.683 129.8C701.016 122.067 698.683 112.533 698.683 101.2C698.683 89.8667 700.949 80.3333 705.483 72.6C710.016 64.8667 716.149 59.0667 723.883 55.2C731.616 51.2 740.216 49.2 749.683 49.2C759.549 49.2 768.216 51.2667 775.683 55.4C783.283 59.4 789.216 65.2 793.483 72.8C797.883 80.2667 800.083 89.2 800.083 99.6C800.083 100.933 800.016 102.4 799.883 104C799.883 105.467 799.75 107 799.483 108.6H729.483C729.883 113.4 731.016 117.2 732.883 120C734.883 122.8 737.283 124.867 740.083 126.2C743.016 127.4 745.883 128 748.683 128C752.549 128 755.816 127.2 758.483 125.6C761.149 124 763.216 121.533 764.683 118.2H797.683C796.216 124.467 793.283 130.267 788.883 135.6C784.483 140.933 778.95 145.2 772.283 148.4C765.75 151.6 758.216 153.2 749.683 153.2ZM729.483 91.4H768.283C768.283 85.9333 766.483 81.6667 762.883 78.6C759.283 75.5333 754.75 74 749.283 74C743.95 74 739.549 75.6 736.083 78.8C732.616 81.8667 730.416 86.0667 729.483 91.4Z" fill="white"/>
<path d="M808.705 150.8V51.6H839.505V63.6C843.105 58.5333 847.371 54.8667 852.305 52.6C857.238 50.3333 862.771 49.2 868.905 49.2C881.305 49.2 890.705 53.2 897.105 61.2C903.505 69.0667 906.705 79.3333 906.705 92V150.8H876.105V95.8C876.105 89.5333 874.571 84.5333 871.505 80.8C868.438 76.9333 863.838 75 857.705 75C851.705 75 847.171 77 844.105 81C841.038 84.8667 839.505 89.8 839.505 95.8V150.8H808.705Z" fill="white"/>
<path d="M957.498 150.8C945.765 150.8 936.898 147.933 930.898 142.2C925.032 136.467 922.098 127.667 922.098 115.8V77H911.698V51.6H922.098V27H952.898V51.6H973.098V77H952.898V116.2C952.898 119.533 953.565 121.8 954.898 123C956.365 124.067 958.765 124.6 962.098 124.6H973.098V150.8H957.498Z" fill="white"/>
<path d="M998.928 42.8C993.728 42.8 989.261 40.9333 985.528 37.2C981.795 33.4667 979.928 29 979.928 23.8C979.928 18.6 981.795 14.1333 985.528 10.4C989.261 6.66666 993.728 4.8 998.928 4.8C1004.39 4.8 1008.93 6.66666 1012.53 10.4C1016.13 14.1333 1017.93 18.6 1017.93 23.8C1017.93 29 1016.13 33.4667 1012.53 37.2C1008.93 40.9333 1004.39 42.8 998.928 42.8ZM983.528 150.8V51.6H1014.33V150.8H983.528Z" fill="white"/>
<path d="M1026.48 150.8V51.6H1057.28V63.6C1060.88 58.5333 1065.14 54.8667 1070.08 52.6C1075.01 50.3333 1080.54 49.2 1086.68 49.2C1099.08 49.2 1108.48 53.2 1114.88 61.2C1121.28 69.0667 1124.48 79.3333 1124.48 92V150.8H1093.88V95.8C1093.88 89.5333 1092.34 84.5333 1089.28 80.8C1086.21 76.9333 1081.61 75 1075.48 75C1069.48 75 1064.94 77 1061.88 81C1058.81 84.8667 1057.28 89.8 1057.28 95.8V150.8H1026.48Z" fill="white"/>
<path d="M1135.07 150.8V10.8H1165.87V63.6C1169.47 58.5333 1173.74 54.8667 1178.67 52.6C1183.61 50.3333 1189.14 49.2 1195.27 49.2C1207.67 49.2 1217.07 53.2 1223.47 61.2C1229.87 69.0667 1233.07 79.3333 1233.07 92V150.8H1202.47V95.8C1202.47 89.5333 1200.94 84.5333 1197.87 80.8C1194.81 76.9333 1190.21 75 1184.07 75C1178.07 75 1173.54 77 1170.47 81C1167.41 84.8667 1165.87 89.8 1165.87 95.8V150.8H1135.07Z" fill="white"/>
<path d="M1273.67 153.2C1267.94 153.2 1262.6 152.067 1257.67 149.8C1252.74 147.4 1248.74 144 1245.67 139.6C1242.74 135.067 1241.27 129.6 1241.27 123.2C1241.27 115.867 1243.2 109.933 1247.07 105.4C1250.94 100.733 1256.07 97.3333 1262.47 95.2C1269 93.0667 1276.14 92 1283.87 92H1306.27C1306.27 88.5333 1305.67 85.4667 1304.47 82.8C1303.27 80.1333 1301.47 78.0667 1299.07 76.6C1296.67 75 1293.67 74.2 1290.07 74.2C1286.34 74.2 1282.94 75 1279.87 76.6C1276.8 78.2 1274.87 80.9333 1274.07 84.8H1244.27C1244.8 77.4667 1247.27 71.2 1251.67 66C1256.07 60.6667 1261.67 56.5333 1268.47 53.6C1275.4 50.6667 1282.8 49.2 1290.67 49.2C1299.87 49.2 1307.94 50.9333 1314.87 54.4C1321.94 57.7333 1327.4 62.6 1331.27 69C1335.14 75.2667 1337.07 82.8667 1337.07 91.8V117.2C1337.07 120.133 1337.47 122.4 1338.27 124C1339.2 125.6 1341.54 126.4 1345.27 126.4V150.8C1338.87 150.8 1333.54 150.4 1329.27 149.6C1325 148.8 1321.4 147.333 1318.47 145.2C1315.54 142.933 1312.87 139.667 1310.47 135.4C1306.07 141.267 1300.87 145.733 1294.87 148.8C1288.87 151.733 1281.8 153.2 1273.67 153.2ZM1284.47 129.6C1288.34 129.6 1291.87 128.8 1295.07 127.2C1298.4 125.467 1301.07 123.067 1303.07 120C1305.07 116.933 1306.07 113.467 1306.07 109.6V108.4H1287.07C1284.4 108.4 1281.94 108.8 1279.67 109.6C1277.4 110.267 1275.6 111.4 1274.27 113C1272.94 114.467 1272.27 116.533 1272.27 119.2C1272.27 123.067 1273.54 125.8 1276.07 127.4C1278.6 128.867 1281.4 129.6 1284.47 129.6Z" fill="white"/>
<path d="M1443.23 153.2C1433.23 153.2 1424.43 151.067 1416.83 146.8C1409.23 142.533 1403.23 136.533 1398.83 128.8C1394.57 120.933 1392.43 111.733 1392.43 101.2C1392.43 91.0667 1394.5 82.1333 1398.63 74.4C1402.77 66.5333 1408.63 60.4 1416.23 56C1423.83 51.4667 1432.83 49.2 1443.23 49.2C1454.97 49.2 1465.23 52.2667 1474.03 58.4C1482.83 64.4 1488.77 74 1491.83 87.2H1458.83C1457.5 83.3333 1455.43 80.4667 1452.63 78.6C1449.97 76.6 1446.63 75.6 1442.63 75.6C1438.23 75.6 1434.63 76.8 1431.83 79.2C1429.17 81.6 1427.17 84.7333 1425.83 88.6C1424.63 92.4667 1424.03 96.6667 1424.03 101.2C1424.03 105.6 1424.63 109.8 1425.83 113.8C1427.17 117.667 1429.17 120.8 1431.83 123.2C1434.63 125.6 1438.23 126.8 1442.63 126.8C1446.63 126.8 1449.97 125.8 1452.63 123.8C1455.43 121.8 1457.5 118.933 1458.83 115.2H1491.83C1489.97 123.333 1486.77 130.2 1482.23 135.8C1477.7 141.4 1472.1 145.733 1465.43 148.8C1458.9 151.733 1451.5 153.2 1443.23 153.2Z" fill="white"/>
<path d="M1501.09 150.8V10.8H1531.89V63.6C1535.49 58.5333 1539.75 54.8667 1544.69 52.6C1549.62 50.3333 1555.15 49.2 1561.29 49.2C1573.69 49.2 1583.09 53.2 1589.49 61.2C1595.89 69.0667 1599.09 79.3333 1599.09 92V150.8H1568.49V95.8C1568.49 89.5333 1566.95 84.5333 1563.89 80.8C1560.82 76.9333 1556.22 75 1550.09 75C1544.09 75 1539.55 77 1536.49 81C1533.42 84.8667 1531.89 89.8 1531.89 95.8V150.8H1501.09Z" fill="white"/>
<path d="M1657.89 153.2C1648.69 153.2 1640.22 151.267 1632.49 147.4C1624.75 143.4 1618.55 137.533 1613.89 129.8C1609.22 122.067 1606.89 112.533 1606.89 101.2C1606.89 89.8667 1609.15 80.3333 1613.69 72.6C1618.22 64.8667 1624.35 59.0667 1632.09 55.2C1639.82 51.2 1648.42 49.2 1657.89 49.2C1667.75 49.2 1676.42 51.2667 1683.89 55.4C1691.49 59.4 1697.42 65.2 1701.69 72.8C1706.09 80.2667 1708.29 89.2 1708.29 99.6C1708.29 100.933 1708.22 102.4 1708.09 104C1708.09 105.467 1707.95 107 1707.69 108.6H1637.69C1638.09 113.4 1639.22 117.2 1641.09 120C1643.09 122.8 1645.49 124.867 1648.29 126.2C1651.22 127.4 1654.09 128 1656.89 128C1660.75 128 1664.02 127.2 1666.69 125.6C1669.35 124 1671.42 121.533 1672.89 118.2H1705.89C1704.42 124.467 1701.49 130.267 1697.09 135.6C1692.69 140.933 1687.15 145.2 1680.49 148.4C1673.95 151.6 1666.42 153.2 1657.89 153.2ZM1637.69 91.4H1676.49C1676.49 85.9333 1674.69 81.6667 1671.09 78.6C1667.49 75.5333 1662.95 74 1657.49 74C1652.15 74 1647.75 75.6 1644.29 78.8C1640.82 81.8667 1638.62 86.0667 1637.69 91.4Z" fill="white"/>
<path d="M1758.58 197.2C1749.51 197.2 1741.38 196.2 1734.18 194.2C1726.98 192.2 1721.24 188.933 1716.98 184.4C1712.84 180 1710.78 174.2 1710.78 167C1710.78 162.333 1711.78 158.267 1713.78 154.8C1715.78 151.467 1718.84 148.533 1722.98 146C1719.51 144 1716.91 141.467 1715.18 138.4C1713.44 135.333 1712.58 131.8 1712.58 127.8C1712.58 119 1716.58 112.333 1724.58 107.8C1721.64 104.733 1719.44 101.333 1717.98 97.6C1716.51 93.7333 1715.78 89.6 1715.78 85.2C1715.78 77.8667 1717.51 71.5333 1720.98 66.2C1724.58 60.7333 1729.51 56.5333 1735.78 53.6C1742.04 50.6667 1749.18 49.2 1757.18 49.2C1763.18 49.2 1768.58 50 1773.38 51.6H1808.98V72.2H1796.38C1797.04 74.0667 1797.58 76.1333 1797.98 78.4C1798.51 80.5333 1798.78 82.8 1798.78 85.2C1798.78 92.4 1796.91 98.7333 1793.18 104.2C1789.58 109.533 1784.64 113.733 1778.38 116.8C1772.11 119.733 1765.04 121.2 1757.18 121.2C1754.24 121.2 1751.44 121 1748.78 120.6C1746.24 120.067 1743.78 119.333 1741.38 118.4C1739.11 119.467 1737.98 121.2 1737.98 123.6C1737.98 127.867 1741.44 130 1748.38 130H1768.78C1776.78 130 1783.71 131.133 1789.58 133.4C1795.44 135.667 1799.98 139.133 1803.18 143.8C1806.38 148.467 1807.98 154.533 1807.98 162C1807.98 170 1805.64 176.6 1800.98 181.8C1796.44 187 1790.38 190.867 1782.78 193.4C1775.31 195.933 1767.24 197.2 1758.58 197.2ZM1759.38 174.6C1764.84 174.6 1769.58 173.733 1773.58 172C1777.58 170.267 1779.58 167.533 1779.58 163.8C1779.58 157 1774.91 153.6 1765.58 153.6H1753.18C1748.64 153.6 1745.18 154.4 1742.78 156C1740.38 157.733 1739.18 160.333 1739.18 163.8C1739.18 166.467 1740.11 168.6 1741.98 170.2C1743.84 171.8 1746.31 172.933 1749.38 173.6C1752.44 174.267 1755.78 174.6 1759.38 174.6ZM1757.18 98.8C1761.58 98.8 1765.18 97.5333 1767.98 95C1770.78 92.4667 1772.18 89.2 1772.18 85.2C1772.18 81.3333 1770.78 78.1333 1767.98 75.6C1765.18 72.9333 1761.58 71.6 1757.18 71.6C1752.64 71.6 1749.04 72.9333 1746.38 75.6C1743.71 78.1333 1742.38 81.3333 1742.38 85.2C1742.38 89.2 1743.71 92.4667 1746.38 95C1749.04 97.5333 1752.64 98.8 1757.18 98.8Z" fill="white"/>
<path d="M1843.01 153.2C1837.27 153.2 1831.94 152.067 1827.01 149.8C1822.07 147.4 1818.07 144 1815.01 139.6C1812.07 135.067 1810.61 129.6 1810.61 123.2C1810.61 115.867 1812.54 109.933 1816.41 105.4C1820.27 100.733 1825.41 97.3333 1831.81 95.2C1838.34 93.0667 1845.47 92 1853.21 92H1875.61C1875.61 88.5333 1875.01 85.4667 1873.81 82.8C1872.61 80.1333 1870.81 78.0667 1868.41 76.6C1866.01 75 1863.01 74.2 1859.41 74.2C1855.67 74.2 1852.27 75 1849.21 76.6C1846.14 78.2 1844.21 80.9333 1843.41 84.8H1813.61C1814.14 77.4667 1816.61 71.2 1821.01 66C1825.41 60.6667 1831.01 56.5333 1837.81 53.6C1844.74 50.6667 1852.14 49.2 1860.01 49.2C1869.21 49.2 1877.27 50.9333 1884.21 54.4C1891.27 57.7333 1896.74 62.6 1900.61 69C1904.47 75.2667 1906.41 82.8667 1906.41 91.8V117.2C1906.41 120.133 1906.81 122.4 1907.61 124C1908.54 125.6 1910.87 126.4 1914.61 126.4V150.8C1908.21 150.8 1902.87 150.4 1898.61 149.6C1894.34 148.8 1890.74 147.333 1887.81 145.2C1884.87 142.933 1882.21 139.667 1879.81 135.4C1875.41 141.267 1870.21 145.733 1864.21 148.8C1858.21 151.733 1851.14 153.2 1843.01 153.2ZM1853.81 129.6C1857.67 129.6 1861.21 128.8 1864.41 127.2C1867.74 125.467 1870.41 123.067 1872.41 120C1874.41 116.933 1875.41 113.467 1875.41 109.6V108.4H1856.41C1853.74 108.4 1851.27 108.8 1849.01 109.6C1846.74 110.267 1844.94 111.4 1843.61 113C1842.27 114.467 1841.61 116.533 1841.61 119.2C1841.61 123.067 1842.87 125.8 1845.41 127.4C1847.94 128.867 1850.74 129.6 1853.81 129.6Z" fill="white"/>
<path d="M1922.38 150.8V51.6H1953.18V63.6C1956.78 58.5333 1961.04 54.8667 1965.98 52.6C1970.91 50.3333 1976.44 49.2 1982.58 49.2C1994.98 49.2 2004.38 53.2 2010.78 61.2C2017.18 69.0667 2020.38 79.3333 2020.38 92V150.8H1989.78V95.8C1989.78 89.5333 1988.24 84.5333 1985.18 80.8C1982.11 76.9333 1977.51 75 1971.38 75C1965.38 75 1960.84 77 1957.78 81C1954.71 84.8667 1953.18 89.8 1953.18 95.8V150.8H1922.38Z" fill="white"/>
<path d="M2072.97 153.2C2063.64 153.2 2055.64 150.8 2048.97 146C2042.3 141.2 2037.17 134.867 2033.57 127C2030.1 119 2028.37 110.333 2028.37 101C2028.37 91.6667 2030.17 83.0667 2033.77 75.2C2037.37 67.3333 2042.5 61.0667 2049.17 56.4C2055.84 51.6 2063.77 49.2 2072.97 49.2C2079.24 49.2 2085.17 50.5333 2090.77 53.2C2096.37 55.7333 2100.84 59.5333 2104.17 64.6V10.8H2135.17V150.8H2104.17V137.2C2100.84 142.667 2096.44 146.733 2090.97 149.4C2085.5 151.933 2079.5 153.2 2072.97 153.2ZM2081.97 126.2C2086.1 126.2 2089.84 125.2 2093.17 123.2C2096.5 121.2 2099.17 118.333 2101.17 114.6C2103.17 110.733 2104.17 106.267 2104.17 101.2C2104.17 96.2667 2103.24 91.9333 2101.37 88.2C2099.5 84.4667 2096.9 81.5333 2093.57 79.4C2090.24 77.2667 2086.37 76.2 2081.97 76.2C2078.64 76.2 2075.24 77 2071.77 78.6C2068.44 80.2 2065.64 82.8667 2063.37 86.6C2061.1 90.2 2059.97 95 2059.97 101C2059.97 105.667 2060.84 109.933 2062.57 113.8C2064.44 117.533 2066.97 120.533 2070.17 122.8C2073.5 125.067 2077.44 126.2 2081.97 126.2Z" fill="white"/>
<path d="M2196.79 153.2C2187.19 153.2 2178.39 151.2 2170.39 147.2C2162.52 143.067 2156.19 137.133 2151.39 129.4C2146.72 121.667 2144.39 112.267 2144.39 101.2C2144.39 90.6667 2146.65 81.5333 2151.19 73.8C2155.85 66.0667 2162.19 60.0667 2170.19 55.8C2178.19 51.4 2187.19 49.2 2197.19 49.2C2207.85 49.2 2217.12 51.4667 2224.99 56C2232.85 60.4 2238.99 66.5333 2243.39 74.4C2247.79 82.1333 2249.99 91.0667 2249.99 101.2C2249.99 111.733 2247.65 120.933 2242.99 128.8C2238.32 136.533 2231.99 142.533 2223.99 146.8C2215.99 151.067 2206.92 153.2 2196.79 153.2ZM2196.99 126.4C2201.39 126.4 2205.19 125.333 2208.39 123.2C2211.59 121.067 2214.05 118.067 2215.79 114.2C2217.65 110.333 2218.59 105.933 2218.59 101C2218.59 95.5333 2217.59 91 2215.59 87.4C2213.72 83.6667 2211.12 80.8667 2207.79 79C2204.59 77.1333 2200.99 76.2 2196.99 76.2C2192.85 76.2 2189.12 77.2 2185.79 79.2C2182.59 81.2 2180.05 84.0667 2178.19 87.8C2176.32 91.5333 2175.39 96 2175.39 101.2C2175.39 106.133 2176.25 110.533 2177.99 114.4C2179.85 118.133 2182.39 121.067 2185.59 123.2C2188.79 125.333 2192.59 126.4 2196.99 126.4Z" fill="white"/>
<path d="M2331.09 153.2C2325.36 153.2 2320.03 152.067 2315.09 149.8C2310.16 147.4 2306.16 144 2303.09 139.6C2300.16 135.067 2298.69 129.6 2298.69 123.2C2298.69 115.867 2300.63 109.933 2304.49 105.4C2308.36 100.733 2313.49 97.3333 2319.89 95.2C2326.43 93.0667 2333.56 92 2341.29 92H2363.69C2363.69 88.5333 2363.09 85.4667 2361.89 82.8C2360.69 80.1333 2358.89 78.0667 2356.49 76.6C2354.09 75 2351.09 74.2 2347.49 74.2C2343.76 74.2 2340.36 75 2337.29 76.6C2334.23 78.2 2332.29 80.9333 2331.49 84.8H2301.69C2302.23 77.4667 2304.69 71.2 2309.09 66C2313.49 60.6667 2319.09 56.5333 2325.89 53.6C2332.83 50.6667 2340.23 49.2 2348.09 49.2C2357.29 49.2 2365.36 50.9333 2372.29 54.4C2379.36 57.7333 2384.83 62.6 2388.69 69C2392.56 75.2667 2394.49 82.8667 2394.49 91.8V117.2C2394.49 120.133 2394.89 122.4 2395.69 124C2396.63 125.6 2398.96 126.4 2402.69 126.4V150.8C2396.29 150.8 2390.96 150.4 2386.69 149.6C2382.43 148.8 2378.83 147.333 2375.89 145.2C2372.96 142.933 2370.29 139.667 2367.89 135.4C2363.49 141.267 2358.29 145.733 2352.29 148.8C2346.29 151.733 2339.23 153.2 2331.09 153.2ZM2341.89 129.6C2345.76 129.6 2349.29 128.8 2352.49 127.2C2355.83 125.467 2358.49 123.067 2360.49 120C2362.49 116.933 2363.49 113.467 2363.49 109.6V108.4H2344.49C2341.83 108.4 2339.36 108.8 2337.09 109.6C2334.83 110.267 2333.03 111.4 2331.69 113C2330.36 114.467 2329.69 116.533 2329.69 119.2C2329.69 123.067 2330.96 125.8 2333.49 127.4C2336.03 128.867 2338.83 129.6 2341.89 129.6Z" fill="white"/>
<path d="M2445.78 150.8C2434.05 150.8 2425.18 147.933 2419.18 142.2C2413.31 136.467 2410.38 127.667 2410.38 115.8V77H2399.98V51.6H2410.38V27H2441.18V51.6H2461.38V77H2441.18V116.2C2441.18 119.533 2441.85 121.8 2443.18 123C2444.65 124.067 2447.05 124.6 2450.38 124.6H2461.38V150.8H2445.78Z" fill="white"/>
<path d="M2517.07 153.2C2507.87 153.2 2499.4 151.267 2491.67 147.4C2483.93 143.4 2477.73 137.533 2473.07 129.8C2468.4 122.067 2466.07 112.533 2466.07 101.2C2466.07 89.8667 2468.33 80.3333 2472.87 72.6C2477.4 64.8667 2483.53 59.0667 2491.27 55.2C2499 51.2 2507.6 49.2 2517.07 49.2C2526.93 49.2 2535.6 51.2667 2543.07 55.4C2550.67 59.4 2556.6 65.2 2560.87 72.8C2565.27 80.2667 2567.47 89.2 2567.47 99.6C2567.47 100.933 2567.4 102.4 2567.27 104C2567.27 105.467 2567.13 107 2566.87 108.6H2496.87C2497.27 113.4 2498.4 117.2 2500.27 120C2502.27 122.8 2504.67 124.867 2507.47 126.2C2510.4 127.4 2513.27 128 2516.07 128C2519.93 128 2523.2 127.2 2525.87 125.6C2528.53 124 2530.6 121.533 2532.07 118.2H2565.07C2563.6 124.467 2560.67 130.267 2556.27 135.6C2551.87 140.933 2546.33 145.2 2539.67 148.4C2533.13 151.6 2525.6 153.2 2517.07 153.2ZM2496.87 91.4H2535.67C2535.67 85.9333 2533.87 81.6667 2530.27 78.6C2526.67 75.5333 2522.13 74 2516.67 74C2511.33 74 2506.93 75.6 2503.47 78.8C2500 81.8667 2497.8 86.0667 2496.87 91.4ZM2492.87 45.4V23.8L2540.27 0V25L2492.87 45.4Z" fill="white"/>
<path d="M2645.08 150.8L2609.88 51.6H2642.48L2664.08 122.4L2685.48 51.6H2717.88L2682.68 150.8H2645.08Z" fill="white"/>
<path d="M2766.32 153.2C2756.72 153.2 2747.92 151.2 2739.92 147.2C2732.05 143.067 2725.72 137.133 2720.92 129.4C2716.25 121.667 2713.92 112.267 2713.92 101.2C2713.92 90.6667 2716.18 81.5333 2720.72 73.8C2725.38 66.0667 2731.72 60.0667 2739.72 55.8C2747.72 51.4 2756.72 49.2 2766.72 49.2C2777.38 49.2 2786.65 51.4667 2794.52 56C2802.38 60.4 2808.52 66.5333 2812.92 74.4C2817.32 82.1333 2819.52 91.0667 2819.52 101.2C2819.52 111.733 2817.18 120.933 2812.52 128.8C2807.85 136.533 2801.52 142.533 2793.52 146.8C2785.52 151.067 2776.45 153.2 2766.32 153.2ZM2766.52 126.4C2770.92 126.4 2774.72 125.333 2777.92 123.2C2781.12 121.067 2783.58 118.067 2785.32 114.2C2787.18 110.333 2788.12 105.933 2788.12 101C2788.12 95.5333 2787.12 91 2785.12 87.4C2783.25 83.6667 2780.65 80.8667 2777.32 79C2774.12 77.1333 2770.52 76.2 2766.52 76.2C2762.38 76.2 2758.65 77.2 2755.32 79.2C2752.12 81.2 2749.58 84.0667 2747.72 87.8C2745.85 91.5333 2744.92 96 2744.92 101.2C2744.92 106.133 2745.78 110.533 2747.52 114.4C2749.38 118.133 2751.92 121.067 2755.12 123.2C2758.32 125.333 2762.12 126.4 2766.52 126.4Z" fill="white"/>
<path d="M2876.63 153.2C2866.63 153.2 2857.83 151.067 2850.23 146.8C2842.63 142.533 2836.63 136.533 2832.23 128.8C2827.96 120.933 2825.83 111.733 2825.83 101.2C2825.83 91.0667 2827.9 82.1333 2832.03 74.4C2836.16 66.5333 2842.03 60.4 2849.63 56C2857.23 51.4667 2866.23 49.2 2876.63 49.2C2888.36 49.2 2898.63 52.2667 2907.43 58.4C2916.23 64.4 2922.16 74 2925.23 87.2H2892.23C2890.9 83.3333 2888.83 80.4667 2886.03 78.6C2883.36 76.6 2880.03 75.6 2876.03 75.6C2871.63 75.6 2868.03 76.8 2865.23 79.2C2862.56 81.6 2860.56 84.7333 2859.23 88.6C2858.03 92.4667 2857.43 96.6667 2857.43 101.2C2857.43 105.6 2858.03 109.8 2859.23 113.8C2860.56 117.667 2862.56 120.8 2865.23 123.2C2868.03 125.6 2871.63 126.8 2876.03 126.8C2880.03 126.8 2883.36 125.8 2886.03 123.8C2888.83 121.8 2890.9 118.933 2892.23 115.2H2925.23C2923.36 123.333 2920.16 130.2 2915.63 135.8C2911.1 141.4 2905.5 145.733 2898.83 148.8C2892.3 151.733 2884.9 153.2 2876.63 153.2Z" fill="white"/>
<path d="M2982.89 153.2C2973.69 153.2 2965.22 151.267 2957.49 147.4C2949.75 143.4 2943.55 137.533 2938.89 129.8C2934.22 122.067 2931.89 112.533 2931.89 101.2C2931.89 89.8667 2934.15 80.3333 2938.69 72.6C2943.22 64.8667 2949.35 59.0667 2957.09 55.2C2964.82 51.2 2973.42 49.2 2982.89 49.2C2992.75 49.2 3001.42 51.2667 3008.89 55.4C3016.49 59.4 3022.42 65.2 3026.69 72.8C3031.09 80.2667 3033.29 89.2 3033.29 99.6C3033.29 100.933 3033.22 102.4 3033.09 104C3033.09 105.467 3032.95 107 3032.69 108.6H2962.69C2963.09 113.4 2964.22 117.2 2966.09 120C2968.09 122.8 2970.49 124.867 2973.29 126.2C2976.22 127.4 2979.09 128 2981.89 128C2985.75 128 2989.02 127.2 2991.69 125.6C2994.35 124 2996.42 121.533 2997.89 118.2H3030.89C3029.42 124.467 3026.49 130.267 3022.09 135.6C3017.69 140.933 3012.15 145.2 3005.49 148.4C2998.95 151.6 2991.42 153.2 2982.89 153.2ZM2962.69 91.4H3001.49C3001.49 85.9333 2999.69 81.6667 2996.09 78.6C2992.49 75.5333 2987.95 74 2982.49 74C2977.15 74 2972.75 75.6 2969.29 78.8C2965.82 81.8667 2963.62 86.0667 2962.69 91.4ZM2952.09 43.2V21.4L2982.49 5.6L3012.89 21.4V43.2L2982.49 27.2L2952.09 43.2Z" fill="white"/>
<path d="M3132.3 153.2C3123.1 153.2 3114.63 151.267 3106.9 147.4C3099.17 143.4 3092.97 137.533 3088.3 129.8C3083.63 122.067 3081.3 112.533 3081.3 101.2C3081.3 89.8667 3083.57 80.3333 3088.1 72.6C3092.63 64.8667 3098.77 59.0667 3106.5 55.2C3114.23 51.2 3122.83 49.2 3132.3 49.2C3142.17 49.2 3150.83 51.2667 3158.3 55.4C3165.9 59.4 3171.83 65.2 3176.1 72.8C3180.5 80.2667 3182.7 89.2 3182.7 99.6C3182.7 100.933 3182.63 102.4 3182.5 104C3182.5 105.467 3182.37 107 3182.1 108.6H3112.1C3112.5 113.4 3113.63 117.2 3115.5 120C3117.5 122.8 3119.9 124.867 3122.7 126.2C3125.63 127.4 3128.5 128 3131.3 128C3135.17 128 3138.43 127.2 3141.1 125.6C3143.77 124 3145.83 121.533 3147.3 118.2H3180.3C3178.83 124.467 3175.9 130.267 3171.5 135.6C3167.1 140.933 3161.57 145.2 3154.9 148.4C3148.37 151.6 3140.83 153.2 3132.3 153.2ZM3112.1 91.4H3150.9C3150.9 85.9333 3149.1 81.6667 3145.5 78.6C3141.9 75.5333 3137.37 74 3131.9 74C3126.57 74 3122.17 75.6 3118.7 78.8C3115.23 81.8667 3113.03 86.0667 3112.1 91.4Z" fill="white"/>
<path d="M3191.32 150.8V51.6H3222.12V62.8C3225.59 58.4 3229.72 55.0667 3234.52 52.8C3239.46 50.4 3244.79 49.2 3250.52 49.2C3256.79 49.2 3262.99 50.7333 3269.12 53.8C3275.26 56.8667 3280.12 61.6 3283.72 68C3286.92 62.9333 3291.32 58.5333 3296.92 54.8C3302.52 51.0667 3309.06 49.2 3316.52 49.2C3324.52 49.2 3331.52 50.8 3337.52 54C3343.52 57.2 3348.12 62 3351.32 68.4C3354.66 74.6667 3356.32 82.4667 3356.32 91.8V150.8H3325.72V95.8C3325.72 89.5333 3324.19 84.6667 3321.12 81.2C3318.06 77.6 3313.52 75.8 3307.52 75.8C3301.39 75.8 3296.79 77.6 3293.72 81.2C3290.79 84.8 3289.32 89.6667 3289.32 95.8V150.8H3258.52V95.8C3258.52 89.8 3256.99 85 3253.92 81.4C3250.99 77.6667 3246.46 75.8 3240.32 75.8C3234.32 75.8 3229.79 77.6 3226.72 81.2C3223.66 84.6667 3222.12 89.5333 3222.12 95.8V150.8H3191.32Z" fill="white"/>
<path d="M3408.7 150.8V51.6H3439.5V62.8C3442.97 58.4 3447.1 55.0667 3451.9 52.8C3456.84 50.4 3462.17 49.2 3467.9 49.2C3474.17 49.2 3480.37 50.7333 3486.5 53.8C3492.64 56.8667 3497.5 61.6 3501.1 68C3504.3 62.9333 3508.7 58.5333 3514.3 54.8C3519.9 51.0667 3526.44 49.2 3533.9 49.2C3541.9 49.2 3548.9 50.8 3554.9 54C3560.9 57.2 3565.5 62 3568.7 68.4C3572.04 74.6667 3573.7 82.4667 3573.7 91.8V150.8H3543.1V95.8C3543.1 89.5333 3541.57 84.6667 3538.5 81.2C3535.44 77.6 3530.9 75.8 3524.9 75.8C3518.77 75.8 3514.17 77.6 3511.1 81.2C3508.17 84.8 3506.7 89.6667 3506.7 95.8V150.8H3475.9V95.8C3475.9 89.8 3474.37 85 3471.3 81.4C3468.37 77.6667 3463.84 75.8 3457.7 75.8C3451.7 75.8 3447.17 77.6 3444.1 81.2C3441.04 84.6667 3439.5 89.5333 3439.5 95.8V150.8H3408.7Z" fill="white"/>
<path d="M3600.3 42.8C3595.1 42.8 3590.63 40.9333 3586.9 37.2C3583.16 33.4667 3581.3 29 3581.3 23.8C3581.3 18.6 3583.16 14.1333 3586.9 10.4C3590.63 6.66666 3595.1 4.8 3600.3 4.8C3605.76 4.8 3610.3 6.66666 3613.9 10.4C3617.5 14.1333 3619.3 18.6 3619.3 23.8C3619.3 29 3617.5 33.4667 3613.9 37.2C3610.3 40.9333 3605.76 42.8 3600.3 42.8ZM3584.9 150.8V51.6H3615.7V150.8H3584.9Z" fill="white"/>
<path d="M3627.85 150.8V51.6H3658.65V63.6C3662.25 58.5333 3666.51 54.8667 3671.45 52.6C3676.38 50.3333 3681.91 49.2 3688.05 49.2C3700.45 49.2 3709.85 53.2 3716.25 61.2C3722.65 69.0667 3725.85 79.3333 3725.85 92V150.8H3695.25V95.8C3695.25 89.5333 3693.71 84.5333 3690.65 80.8C3687.58 76.9333 3682.98 75 3676.85 75C3670.85 75 3666.31 77 3663.25 81C3660.18 84.8667 3658.65 89.8 3658.65 95.8V150.8H3627.85Z" fill="white"/>
<path d="M3773.24 153.2C3764.97 153.2 3757.97 151.4 3752.24 147.8C3746.64 144.067 3742.37 139 3739.44 132.6C3736.64 126.067 3735.24 118.667 3735.24 110.4V51.6H3765.84V106.6C3765.84 112.733 3767.37 117.733 3770.44 121.6C3773.51 125.467 3778.11 127.4 3784.24 127.4C3790.37 127.4 3794.97 125.467 3798.04 121.6C3801.11 117.733 3802.64 112.733 3802.64 106.6V51.6H3833.44V150.8H3802.64V138.4C3799.17 143.333 3794.91 147.067 3789.84 149.6C3784.77 152 3779.24 153.2 3773.24 153.2Z" fill="white"/>
<path d="M3885.23 150.8C3873.5 150.8 3864.63 147.933 3858.63 142.2C3852.77 136.467 3849.83 127.667 3849.83 115.8V77H3839.43V51.6H3849.83V27H3880.63V51.6H3900.83V77H3880.63V116.2C3880.63 119.533 3881.3 121.8 3882.63 123C3884.1 124.067 3886.5 124.6 3889.83 124.6H3900.83V150.8H3885.23Z" fill="white"/>
<path d="M3957.92 153.2C3948.32 153.2 3939.52 151.2 3931.52 147.2C3923.65 143.067 3917.32 137.133 3912.52 129.4C3907.85 121.667 3905.52 112.267 3905.52 101.2C3905.52 90.6667 3907.79 81.5333 3912.32 73.8C3916.99 66.0667 3923.32 60.0667 3931.32 55.8C3939.32 51.4 3948.32 49.2 3958.32 49.2C3968.99 49.2 3978.25 51.4667 3986.12 56C3993.99 60.4 4000.12 66.5333 4004.52 74.4C4008.92 82.1333 4011.12 91.0667 4011.12 101.2C4011.12 111.733 4008.79 120.933 4004.12 128.8C3999.45 136.533 3993.12 142.533 3985.12 146.8C3977.12 151.067 3968.05 153.2 3957.92 153.2ZM3958.12 126.4C3962.52 126.4 3966.32 125.333 3969.52 123.2C3972.72 121.067 3975.19 118.067 3976.92 114.2C3978.79 110.333 3979.72 105.933 3979.72 101C3979.72 95.5333 3978.72 91 3976.72 87.4C3974.85 83.6667 3972.25 80.8667 3968.92 79C3965.72 77.1333 3962.12 76.2 3958.12 76.2C3953.99 76.2 3950.25 77.2 3946.92 79.2C3943.72 81.2 3941.19 84.0667 3939.32 87.8C3937.45 91.5333 3936.52 96 3936.52 101.2C3936.52 106.133 3937.39 110.533 3939.12 114.4C3940.99 118.133 3943.52 121.067 3946.72 123.2C3949.92 125.333 3953.72 126.4 3958.12 126.4Z" fill="white"/>
<path d="M4062.08 153.2C4054.88 153.2 4047.75 151.933 4040.68 149.4C4033.75 146.733 4027.95 142.867 4023.28 137.8C4018.61 132.6 4016.01 126.2 4015.48 118.6H4046.08C4046.61 122.333 4048.35 125.267 4051.28 127.4C4054.35 129.4 4057.81 130.4 4061.68 130.4C4064.88 130.4 4067.68 129.8 4070.08 128.6C4072.61 127.267 4073.88 125.133 4073.88 122.2C4073.88 119.8 4072.75 117.933 4070.48 116.6C4068.21 115.133 4065.55 114 4062.48 113.2C4059.55 112.4 4056.95 111.733 4054.68 111.2C4048.41 109.6 4042.55 107.8 4037.08 105.8C4031.61 103.8 4027.15 100.867 4023.68 97C4020.35 93.1333 4018.68 87.6667 4018.68 80.6C4018.68 73.8 4020.55 68.0667 4024.28 63.4C4028.01 58.7333 4033.01 55.2 4039.28 52.8C4045.55 50.4 4052.41 49.2 4059.88 49.2C4071.61 49.2 4081.28 52.1333 4088.88 58C4096.61 63.7333 4101.15 72.2667 4102.48 83.6H4073.88C4073.21 79.6 4071.55 76.7333 4068.88 75C4066.21 73.1333 4062.88 72.2 4058.88 72.2C4055.95 72.2 4053.35 72.8 4051.08 74C4048.81 75.0667 4047.68 77.0667 4047.68 80C4047.68 82.4 4048.75 84.3333 4050.88 85.8C4053.15 87.1333 4055.75 88.1333 4058.68 88.8C4061.61 89.4667 4064.28 90.1333 4066.68 90.8C4073.08 92.4 4078.95 94.2667 4084.28 96.4C4089.75 98.5333 4094.21 101.6 4097.68 105.6C4101.15 109.467 4102.95 115.067 4103.08 122.4C4103.08 128.933 4101.15 134.533 4097.28 139.2C4093.55 143.733 4088.55 147.2 4082.28 149.6C4076.15 152 4069.41 153.2 4062.08 153.2Z" fill="white"/>
<path d="M4129.02 153.2C4123.69 153.2 4119.22 151.333 4115.62 147.6C4112.02 143.867 4110.23 139.4 4110.23 134.2C4110.23 129 4112.02 124.533 4115.62 120.8C4119.22 117.067 4123.69 115.2 4129.02 115.2C4134.36 115.2 4138.89 117.067 4142.62 120.8C4146.36 124.533 4148.23 129 4148.23 134.2C4148.23 139.4 4146.36 143.867 4142.62 147.6C4138.89 151.333 4134.36 153.2 4129.02 153.2Z" fill="white"/>
</svg>
