<svg width="3498" height="200" viewBox="0 0 3498 200" fill="none" xmlns="http://www.w3.org/2000/svg">
<path d="M0 146V5.99999H55.6C65.2 5.99999 73.8667 7.73333 81.6 11.2C89.3333 14.6667 95.4 19.6667 99.8 26.2C104.333 32.7333 106.6 40.5333 106.6 49.6C106.6 58.5333 104.4 66.3333 100 73C95.7333 79.5333 89.7333 84.6 82 88.2C74.4 91.8 65.6 93.6 55.6 93.6H31.6V146H0ZM31.6 66.6H54.8C62.2667 66.6 67.4 64.9333 70.2 61.6C73.1333 58.1333 74.6 54.1333 74.6 49.6C74.6 45.3333 73.1333 41.5333 70.2 38.2C67.4 34.7333 62.2667 33 54.8 33H31.6V66.6Z" fill="white"/>
<path d="M155.347 148.4C146.147 148.4 137.68 146.467 129.947 142.6C122.214 138.6 116.014 132.733 111.347 125C106.68 117.267 104.347 107.733 104.347 96.4C104.347 85.0667 106.614 75.5333 111.147 67.8C115.68 60.0667 121.814 54.2667 129.547 50.4C137.28 46.4 145.88 44.4 155.347 44.4C165.214 44.4 173.88 46.4667 181.347 50.6C188.947 54.6 194.88 60.4 199.147 68C203.547 75.4667 205.747 84.4 205.747 94.8C205.747 96.1333 205.68 97.6 205.547 99.2C205.547 100.667 205.414 102.2 205.147 103.8H135.147C135.547 108.6 136.68 112.4 138.547 115.2C140.547 118 142.947 120.067 145.747 121.4C148.68 122.6 151.547 123.2 154.347 123.2C158.214 123.2 161.48 122.4 164.147 120.8C166.814 119.2 168.88 116.733 170.347 113.4H203.347C201.88 119.667 198.947 125.467 194.547 130.8C190.147 136.133 184.614 140.4 177.947 143.6C171.414 146.8 163.88 148.4 155.347 148.4ZM135.147 86.6H173.947C173.947 81.1333 172.147 76.8667 168.547 73.8C164.947 70.7333 160.414 69.2 154.947 69.2C149.614 69.2 145.214 70.8 141.747 74C138.28 77.0667 136.08 81.2667 135.147 86.6Z" fill="white"/>
<path d="M262.569 148.4C252.569 148.4 243.769 146.267 236.169 142C228.569 137.733 222.569 131.733 218.169 124C213.902 116.133 211.769 106.933 211.769 96.4C211.769 86.2667 213.835 77.3333 217.969 69.6C222.102 61.7333 227.969 55.6 235.569 51.2C243.169 46.6667 252.169 44.4 262.569 44.4C274.302 44.4 284.569 47.4667 293.369 53.6C302.169 59.6 308.102 69.2 311.169 82.4H278.169C276.835 78.5333 274.769 75.6667 271.969 73.8C269.302 71.8 265.969 70.8 261.969 70.8C257.569 70.8 253.969 72 251.169 74.4C248.502 76.8 246.502 79.9333 245.169 83.8C243.969 87.6667 243.369 91.8667 243.369 96.4C243.369 100.8 243.969 105 245.169 109C246.502 112.867 248.502 116 251.169 118.4C253.969 120.8 257.569 122 261.969 122C265.969 122 269.302 121 271.969 119C274.769 117 276.835 114.133 278.169 110.4H311.169C309.302 118.533 306.102 125.4 301.569 131C297.035 136.6 291.435 140.933 284.769 144C278.235 146.933 270.835 148.4 262.569 148.4ZM240.969 199.2V181.6H265.969C271.702 181.6 274.569 179.733 274.569 176C274.569 172.133 271.702 170.2 265.969 170.2H252.169V142.6H271.369V154.2C275.769 154.067 279.969 154.8 283.969 156.4C287.969 158 291.235 160.467 293.769 163.8C296.302 167.133 297.569 171.333 297.569 176.4C297.569 181.6 296.235 185.867 293.569 189.2C290.902 192.533 287.502 195 283.369 196.6C279.235 198.333 274.902 199.2 270.369 199.2H240.969Z" fill="white"/>
<path d="M350.623 148.4C344.89 148.4 339.557 147.267 334.623 145C329.69 142.6 325.69 139.2 322.623 134.8C319.69 130.267 318.223 124.8 318.223 118.4C318.223 111.067 320.157 105.133 324.023 100.6C327.89 95.9333 333.023 92.5333 339.423 90.4C345.957 88.2667 353.09 87.2 360.823 87.2H383.223C383.223 83.7333 382.623 80.6667 381.423 78C380.223 75.3333 378.423 73.2667 376.023 71.8C373.623 70.2 370.623 69.4 367.023 69.4C363.29 69.4 359.89 70.2 356.823 71.8C353.757 73.4 351.823 76.1333 351.023 80H321.223C321.757 72.6667 324.223 66.4 328.623 61.2C333.023 55.8667 338.623 51.7333 345.423 48.8C352.357 45.8667 359.757 44.4 367.623 44.4C376.823 44.4 384.89 46.1333 391.823 49.6C398.89 52.9333 404.357 57.8 408.223 64.2C412.09 70.4667 414.023 78.0667 414.023 87V112.4C414.023 115.333 414.423 117.6 415.223 119.2C416.157 120.8 418.49 121.6 422.223 121.6V146C415.823 146 410.49 145.6 406.223 144.8C401.957 144 398.357 142.533 395.423 140.4C392.49 138.133 389.823 134.867 387.423 130.6C383.023 136.467 377.823 140.933 371.823 144C365.823 146.933 358.757 148.4 350.623 148.4ZM361.423 124.8C365.29 124.8 368.823 124 372.023 122.4C375.357 120.667 378.023 118.267 380.023 115.2C382.023 112.133 383.023 108.667 383.023 104.8V103.6H364.023C361.357 103.6 358.89 104 356.623 104.8C354.357 105.467 352.557 106.6 351.223 108.2C349.89 109.667 349.223 111.733 349.223 114.4C349.223 118.267 350.49 121 353.023 122.6C355.557 124.067 358.357 124.8 361.423 124.8Z" fill="white"/>
<path d="M515.986 148.4C508.786 148.4 501.653 147.133 494.586 144.6C487.653 141.933 481.853 138.067 477.186 133C472.519 127.8 469.919 121.4 469.386 113.8H499.986C500.519 117.533 502.253 120.467 505.186 122.6C508.253 124.6 511.719 125.6 515.586 125.6C518.786 125.6 521.586 125 523.986 123.8C526.519 122.467 527.786 120.333 527.786 117.4C527.786 115 526.653 113.133 524.386 111.8C522.119 110.333 519.453 109.2 516.386 108.4C513.453 107.6 510.853 106.933 508.586 106.4C502.319 104.8 496.453 103 490.986 101C485.519 99 481.053 96.0667 477.586 92.2C474.253 88.3333 472.586 82.8667 472.586 75.8C472.586 69 474.453 63.2667 478.186 58.6C481.919 53.9333 486.919 50.4 493.186 48C499.453 45.6 506.319 44.4 513.786 44.4C525.519 44.4 535.186 47.3333 542.786 53.2C550.519 58.9333 555.053 67.4667 556.386 78.8H527.786C527.119 74.8 525.453 71.9333 522.786 70.2C520.119 68.3333 516.786 67.4 512.786 67.4C509.853 67.4 507.253 68 504.986 69.2C502.719 70.2667 501.586 72.2667 501.586 75.2C501.586 77.6 502.653 79.5333 504.786 81C507.053 82.3333 509.653 83.3333 512.586 84C515.519 84.6667 518.186 85.3333 520.586 86C526.986 87.6 532.853 89.4667 538.186 91.6C543.653 93.7333 548.119 96.8 551.586 100.8C555.053 104.667 556.853 110.267 556.986 117.6C556.986 124.133 555.053 129.733 551.186 134.4C547.453 138.933 542.453 142.4 536.186 144.8C530.053 147.2 523.319 148.4 515.986 148.4Z" fill="white"/>
<path d="M602.731 148.4C594.465 148.4 587.465 146.6 581.731 143C576.131 139.267 571.865 134.2 568.931 127.8C566.131 121.267 564.731 113.867 564.731 105.6V46.8H595.331V101.8C595.331 107.933 596.865 112.933 599.931 116.8C602.998 120.667 607.598 122.6 613.731 122.6C619.865 122.6 624.465 120.667 627.531 116.8C630.598 112.933 632.131 107.933 632.131 101.8V46.8H662.931V146H632.131V133.6C628.665 138.533 624.398 142.267 619.331 144.8C614.265 147.2 608.731 148.4 602.731 148.4Z" fill="white"/>
<path d="M704.725 148.4C698.992 148.4 693.658 147.267 688.725 145C683.792 142.6 679.792 139.2 676.725 134.8C673.792 130.267 672.325 124.8 672.325 118.4C672.325 111.067 674.258 105.133 678.125 100.6C681.992 95.9333 687.125 92.5333 693.525 90.4C700.058 88.2667 707.192 87.2 714.925 87.2H737.325C737.325 83.7333 736.725 80.6667 735.525 78C734.325 75.3333 732.525 73.2667 730.125 71.8C727.725 70.2 724.725 69.4 721.125 69.4C717.392 69.4 713.992 70.2 710.925 71.8C707.858 73.4 705.925 76.1333 705.125 80H675.325C675.858 72.6667 678.325 66.4 682.725 61.2C687.125 55.8667 692.725 51.7333 699.525 48.8C706.458 45.8667 713.858 44.4 721.725 44.4C730.925 44.4 738.992 46.1333 745.925 49.6C752.992 52.9333 758.458 57.8 762.325 64.2C766.192 70.4667 768.125 78.0667 768.125 87V112.4C768.125 115.333 768.525 117.6 769.325 119.2C770.258 120.8 772.592 121.6 776.325 121.6V146C769.925 146 764.592 145.6 760.325 144.8C756.058 144 752.458 142.533 749.525 140.4C746.592 138.133 743.925 134.867 741.525 130.6C737.125 136.467 731.925 140.933 725.925 144C719.925 146.933 712.858 148.4 704.725 148.4ZM715.525 124.8C719.392 124.8 722.925 124 726.125 122.4C729.458 120.667 732.125 118.267 734.125 115.2C736.125 112.133 737.125 108.667 737.125 104.8V103.6H718.125C715.458 103.6 712.992 104 710.725 104.8C708.458 105.467 706.658 106.6 705.325 108.2C703.992 109.667 703.325 111.733 703.325 114.4C703.325 118.267 704.592 121 707.125 122.6C709.658 124.067 712.458 124.8 715.525 124.8Z" fill="white"/>
<path d="M826.088 190V46.8H857.088V60.2C860.288 55 864.687 51.0667 870.287 48.4C876.021 45.7333 882.021 44.4 888.287 44.4C897.087 44.4 904.821 46.6667 911.487 51.2C918.154 55.6 923.354 61.7333 927.088 69.6C930.954 77.3333 932.888 86.2 932.888 96.2C932.888 105.8 931.087 114.6 927.487 122.6C923.887 130.467 918.754 136.733 912.088 141.4C905.421 146.067 897.487 148.4 888.287 148.4C882.021 148.4 876.087 147.133 870.487 144.6C864.887 142.067 860.421 138.133 857.088 132.8V190H826.088ZM879.088 121.4C883.488 121.4 887.354 120.333 890.688 118.2C894.021 116.067 896.621 113.133 898.487 109.4C900.354 105.533 901.287 101.133 901.287 96.2C901.287 90.7333 900.221 86.2 898.088 82.6C896.088 78.8667 893.421 76.0667 890.088 74.2C886.754 72.3333 883.088 71.4 879.088 71.4C874.954 71.4 871.221 72.4 867.888 74.4C864.554 76.4 861.888 79.2667 859.888 83C857.888 86.7333 856.888 91.2 856.888 96.4C856.888 101.2 857.821 105.533 859.688 109.4C861.554 113.133 864.154 116.067 867.487 118.2C870.954 120.333 874.821 121.4 879.088 121.4Z" fill="white"/>
<path d="M956.545 38C951.345 38 946.879 36.1333 943.145 32.4C939.412 28.6667 937.545 24.2 937.545 19C937.545 13.8 939.412 9.33333 943.145 5.6C946.879 1.86667 951.345 0 956.545 0C962.012 0 966.545 1.86667 970.145 5.6C973.745 9.33333 975.545 13.8 975.545 19C975.545 24.2 973.745 28.6667 970.145 32.4C966.545 36.1333 962.012 38 956.545 38ZM941.145 146V46.8H971.945V146H941.145Z" fill="white"/>
<path d="M983.625 146V121.8L1024.82 71.8H984.025V46.8H1059.82V71L1017.62 121H1060.62V146H983.625Z" fill="white"/>
<path d="M1065.46 146V121.8L1106.66 71.8H1065.86V46.8H1141.66V71L1099.46 121H1142.46V146H1065.46Z" fill="white"/>
<path d="M1180.9 148.4C1175.16 148.4 1169.83 147.267 1164.9 145C1159.96 142.6 1155.96 139.2 1152.9 134.8C1149.96 130.267 1148.5 124.8 1148.5 118.4C1148.5 111.067 1150.43 105.133 1154.3 100.6C1158.16 95.9333 1163.3 92.5333 1169.7 90.4C1176.23 88.2667 1183.36 87.2 1191.1 87.2H1213.5C1213.5 83.7333 1212.9 80.6667 1211.7 78C1210.5 75.3333 1208.7 73.2667 1206.3 71.8C1203.9 70.2 1200.9 69.4 1197.3 69.4C1193.56 69.4 1190.16 70.2 1187.1 71.8C1184.03 73.4 1182.1 76.1333 1181.3 80H1151.5C1152.03 72.6667 1154.5 66.4 1158.9 61.2C1163.3 55.8667 1168.9 51.7333 1175.7 48.8C1182.63 45.8667 1190.03 44.4 1197.9 44.4C1207.1 44.4 1215.16 46.1333 1222.1 49.6C1229.16 52.9333 1234.63 57.8 1238.5 64.2C1242.36 70.4667 1244.3 78.0667 1244.3 87V112.4C1244.3 115.333 1244.7 117.6 1245.5 119.2C1246.43 120.8 1248.76 121.6 1252.5 121.6V146C1246.1 146 1240.76 145.6 1236.5 144.8C1232.23 144 1228.63 142.533 1225.7 140.4C1222.76 138.133 1220.1 134.867 1217.7 130.6C1213.3 136.467 1208.1 140.933 1202.1 144C1196.1 146.933 1189.03 148.4 1180.9 148.4ZM1191.7 124.8C1195.56 124.8 1199.1 124 1202.3 122.4C1205.63 120.667 1208.3 118.267 1210.3 115.2C1212.3 112.133 1213.3 108.667 1213.3 104.8V103.6H1194.3C1191.63 103.6 1189.16 104 1186.9 104.8C1184.63 105.467 1182.83 106.6 1181.5 108.2C1180.16 109.667 1179.5 111.733 1179.5 114.4C1179.5 118.267 1180.76 121 1183.3 122.6C1185.83 124.067 1188.63 124.8 1191.7 124.8Z" fill="white"/>
<path d="M1309.06 146V72.2H1297.86V46.8H1309.06V43C1309.06 29.4 1312.46 19.8667 1319.26 14.4C1326.19 8.79999 1335.26 5.99999 1346.46 5.99999H1356.66V32.8H1351.06C1347.19 32.8 1344.39 33.6 1342.66 35.2C1340.93 36.6667 1340.06 39.1333 1340.06 42.6V46.8H1356.66V72.2H1340.06V146H1309.06Z" fill="white"/>
<path d="M1390.47 148.4C1384.73 148.4 1379.4 147.267 1374.47 145C1369.53 142.6 1365.53 139.2 1362.47 134.8C1359.53 130.267 1358.07 124.8 1358.07 118.4C1358.07 111.067 1360 105.133 1363.87 100.6C1367.73 95.9333 1372.87 92.5333 1379.27 90.4C1385.8 88.2667 1392.93 87.2 1400.67 87.2H1423.07C1423.07 83.7333 1422.47 80.6667 1421.27 78C1420.07 75.3333 1418.27 73.2667 1415.87 71.8C1413.47 70.2 1410.47 69.4 1406.87 69.4C1403.13 69.4 1399.73 70.2 1396.67 71.8C1393.6 73.4 1391.67 76.1333 1390.87 80H1361.07C1361.6 72.6667 1364.07 66.4 1368.47 61.2C1372.87 55.8667 1378.47 51.7333 1385.27 48.8C1392.2 45.8667 1399.6 44.4 1407.47 44.4C1416.67 44.4 1424.73 46.1333 1431.67 49.6C1438.73 52.9333 1444.2 57.8 1448.07 64.2C1451.93 70.4667 1453.87 78.0667 1453.87 87V112.4C1453.87 115.333 1454.27 117.6 1455.07 119.2C1456 120.8 1458.33 121.6 1462.07 121.6V146C1455.67 146 1450.33 145.6 1446.07 144.8C1441.8 144 1438.2 142.533 1435.27 140.4C1432.33 138.133 1429.67 134.867 1427.27 130.6C1422.87 136.467 1417.67 140.933 1411.67 144C1405.67 146.933 1398.6 148.4 1390.47 148.4ZM1401.27 124.8C1405.13 124.8 1408.67 124 1411.87 122.4C1415.2 120.667 1417.87 118.267 1419.87 115.2C1421.87 112.133 1422.87 108.667 1422.87 104.8V103.6H1403.87C1401.2 103.6 1398.73 104 1396.47 104.8C1394.2 105.467 1392.4 106.6 1391.07 108.2C1389.73 109.667 1389.07 111.733 1389.07 114.4C1389.07 118.267 1390.33 121 1392.87 122.6C1395.4 124.067 1398.2 124.8 1401.27 124.8Z" fill="white"/>
<path d="M1489.03 146L1453.82 46.8H1486.43L1508.03 117.6L1529.43 46.8H1561.82L1526.62 146H1489.03Z" fill="white"/>
<path d="M1610.26 148.4C1600.66 148.4 1591.86 146.4 1583.86 142.4C1576 138.267 1569.66 132.333 1564.86 124.6C1560.2 116.867 1557.86 107.467 1557.86 96.4C1557.86 85.8667 1560.13 76.7333 1564.66 69C1569.33 61.2667 1575.66 55.2667 1583.66 51C1591.66 46.6 1600.66 44.4 1610.66 44.4C1621.33 44.4 1630.6 46.6667 1638.46 51.2C1646.33 55.6 1652.46 61.7333 1656.86 69.6C1661.26 77.3333 1663.46 86.2667 1663.46 96.4C1663.46 106.933 1661.13 116.133 1656.46 124C1651.8 131.733 1645.46 137.733 1637.46 142C1629.46 146.267 1620.4 148.4 1610.26 148.4ZM1610.46 121.6C1614.86 121.6 1618.66 120.533 1621.86 118.4C1625.06 116.267 1627.53 113.267 1629.26 109.4C1631.13 105.533 1632.06 101.133 1632.06 96.2C1632.06 90.7333 1631.06 86.2 1629.06 82.6C1627.2 78.8667 1624.6 76.0667 1621.26 74.2C1618.06 72.3333 1614.46 71.4 1610.46 71.4C1606.33 71.4 1602.6 72.4 1599.26 74.4C1596.06 76.4 1593.53 79.2667 1591.66 83C1589.8 86.7333 1588.86 91.2 1588.86 96.4C1588.86 101.333 1589.73 105.733 1591.46 109.6C1593.33 113.333 1595.86 116.267 1599.06 118.4C1602.26 120.533 1606.06 121.6 1610.46 121.6Z" fill="white"/>
<path d="M1672.38 146V46.8H1703.18V62.2C1706.64 57.1333 1711.04 52.9333 1716.38 49.6C1721.71 46.1333 1727.84 44.4 1734.78 44.4V77H1726.18C1718.44 77 1712.64 78.7333 1708.78 82.2C1705.04 85.6667 1703.18 91.4 1703.18 99.4V146H1672.38Z" fill="white"/>
<path d="M1758.3 38C1753.1 38 1748.64 36.1333 1744.9 32.4C1741.17 28.6667 1739.3 24.2 1739.3 19C1739.3 13.8 1741.17 9.33333 1744.9 5.6C1748.64 1.86667 1753.1 0 1758.3 0C1763.77 0 1768.3 1.86667 1771.9 5.6C1775.5 9.33333 1777.3 13.8 1777.3 19C1777.3 24.2 1775.5 28.6667 1771.9 32.4C1768.3 36.1333 1763.77 38 1758.3 38ZM1742.9 146V46.8H1773.7V146H1742.9Z" fill="white"/>
<path d="M1826.05 146C1814.32 146 1805.45 143.133 1799.45 137.4C1793.59 131.667 1790.65 122.867 1790.65 111V72.2H1780.25V46.8H1790.65V22.2H1821.45V46.8H1841.65V72.2H1821.45V111.4C1821.45 114.733 1822.12 117 1823.45 118.2C1824.92 119.267 1827.32 119.8 1830.65 119.8H1841.65V146H1826.05Z" fill="white"/>
<path d="M1881.48 148.4C1875.75 148.4 1870.42 147.267 1865.48 145C1860.55 142.6 1856.55 139.2 1853.48 134.8C1850.55 130.267 1849.08 124.8 1849.08 118.4C1849.08 111.067 1851.02 105.133 1854.88 100.6C1858.75 95.9333 1863.88 92.5333 1870.28 90.4C1876.82 88.2667 1883.95 87.2 1891.68 87.2H1914.08C1914.08 83.7333 1913.48 80.6667 1912.28 78C1911.08 75.3333 1909.28 73.2667 1906.88 71.8C1904.48 70.2 1901.48 69.4 1897.88 69.4C1894.15 69.4 1890.75 70.2 1887.68 71.8C1884.62 73.4 1882.68 76.1333 1881.88 80H1852.08C1852.62 72.6667 1855.08 66.4 1859.48 61.2C1863.88 55.8667 1869.48 51.7333 1876.28 48.8C1883.22 45.8667 1890.62 44.4 1898.48 44.4C1907.68 44.4 1915.75 46.1333 1922.68 49.6C1929.75 52.9333 1935.22 57.8 1939.08 64.2C1942.95 70.4667 1944.88 78.0667 1944.88 87V112.4C1944.88 115.333 1945.28 117.6 1946.08 119.2C1947.02 120.8 1949.35 121.6 1953.08 121.6V146C1946.68 146 1941.35 145.6 1937.08 144.8C1932.82 144 1929.22 142.533 1926.28 140.4C1923.35 138.133 1920.68 134.867 1918.28 130.6C1913.88 136.467 1908.68 140.933 1902.68 144C1896.68 146.933 1889.62 148.4 1881.48 148.4ZM1892.28 124.8C1896.15 124.8 1899.68 124 1902.88 122.4C1906.22 120.667 1908.88 118.267 1910.88 115.2C1912.88 112.133 1913.88 108.667 1913.88 104.8V103.6H1894.88C1892.22 103.6 1889.75 104 1887.48 104.8C1885.22 105.467 1883.42 106.6 1882.08 108.2C1880.75 109.667 1880.08 111.733 1880.08 114.4C1880.08 118.267 1881.35 121 1883.88 122.6C1886.42 124.067 1889.22 124.8 1892.28 124.8Z" fill="white"/>
<path d="M2046.85 148.4C2039.65 148.4 2032.51 147.133 2025.45 144.6C2018.51 141.933 2012.71 138.067 2008.05 133C2003.38 127.8 2000.78 121.4 2000.25 113.8H2030.85C2031.38 117.533 2033.11 120.467 2036.05 122.6C2039.11 124.6 2042.58 125.6 2046.45 125.6C2049.65 125.6 2052.45 125 2054.85 123.8C2057.38 122.467 2058.65 120.333 2058.65 117.4C2058.65 115 2057.51 113.133 2055.25 111.8C2052.98 110.333 2050.31 109.2 2047.25 108.4C2044.31 107.6 2041.71 106.933 2039.45 106.4C2033.18 104.8 2027.31 103 2021.85 101C2016.38 99 2011.91 96.0667 2008.45 92.2C2005.11 88.3333 2003.45 82.8667 2003.45 75.8C2003.45 69 2005.31 63.2667 2009.05 58.6C2012.78 53.9333 2017.78 50.4 2024.05 48C2030.31 45.6 2037.18 44.4 2044.65 44.4C2056.38 44.4 2066.05 47.3333 2073.65 53.2C2081.38 58.9333 2085.91 67.4667 2087.25 78.8H2058.65C2057.98 74.8 2056.31 71.9333 2053.65 70.2C2050.98 68.3333 2047.65 67.4 2043.65 67.4C2040.71 67.4 2038.11 68 2035.85 69.2C2033.58 70.2667 2032.45 72.2667 2032.45 75.2C2032.45 77.6 2033.51 79.5333 2035.65 81C2037.91 82.3333 2040.51 83.3333 2043.45 84C2046.38 84.6667 2049.05 85.3333 2051.45 86C2057.85 87.6 2063.71 89.4667 2069.05 91.6C2074.51 93.7333 2078.98 96.8 2082.45 100.8C2085.91 104.667 2087.71 110.267 2087.85 117.6C2087.85 124.133 2085.91 129.733 2082.05 134.4C2078.31 138.933 2073.31 142.4 2067.05 144.8C2060.91 147.2 2054.18 148.4 2046.85 148.4Z" fill="white"/>
<path d="M2145.19 148.4C2135.99 148.4 2127.52 146.467 2119.79 142.6C2112.06 138.6 2105.86 132.733 2101.19 125C2096.52 117.267 2094.19 107.733 2094.19 96.4C2094.19 85.0667 2096.46 75.5333 2100.99 67.8C2105.52 60.0667 2111.66 54.2667 2119.39 50.4C2127.12 46.4 2135.72 44.4 2145.19 44.4C2155.06 44.4 2163.72 46.4667 2171.19 50.6C2178.79 54.6 2184.72 60.4 2188.99 68C2193.39 75.4667 2195.59 84.4 2195.59 94.8C2195.59 96.1333 2195.52 97.6 2195.39 99.2C2195.39 100.667 2195.26 102.2 2194.99 103.8H2124.99C2125.39 108.6 2126.52 112.4 2128.39 115.2C2130.39 118 2132.79 120.067 2135.59 121.4C2138.52 122.6 2141.39 123.2 2144.19 123.2C2148.06 123.2 2151.32 122.4 2153.99 120.8C2156.66 119.2 2158.72 116.733 2160.19 113.4H2193.19C2191.72 119.667 2188.79 125.467 2184.39 130.8C2179.99 136.133 2174.46 140.4 2167.79 143.6C2161.26 146.8 2153.72 148.4 2145.19 148.4ZM2124.99 86.6H2163.79C2163.79 81.1333 2161.99 76.8667 2158.39 73.8C2154.79 70.7333 2150.26 69.2 2144.79 69.2C2139.46 69.2 2135.06 70.8 2131.59 74C2128.12 77.0667 2125.92 81.2667 2124.99 86.6Z" fill="white"/>
<path d="M2204.21 146V46.8H2235.01V58C2238.48 53.6 2242.61 50.2667 2247.41 48C2252.35 45.6 2257.68 44.4 2263.41 44.4C2269.68 44.4 2275.88 45.9333 2282.01 49C2288.15 52.0667 2293.01 56.8 2296.61 63.2C2299.81 58.1333 2304.21 53.7333 2309.81 50C2315.41 46.2667 2321.95 44.4 2329.41 44.4C2337.41 44.4 2344.41 46 2350.41 49.2C2356.41 52.4 2361.01 57.2 2364.21 63.6C2367.55 69.8667 2369.21 77.6667 2369.21 87V146H2338.61V91C2338.61 84.7333 2337.08 79.8667 2334.01 76.4C2330.95 72.8 2326.41 71 2320.41 71C2314.28 71 2309.68 72.8 2306.61 76.4C2303.68 80 2302.21 84.8667 2302.21 91V146H2271.41V91C2271.41 85 2269.88 80.2 2266.81 76.6C2263.88 72.8667 2259.35 71 2253.21 71C2247.21 71 2242.68 72.8 2239.61 76.4C2236.55 79.8667 2235.01 84.7333 2235.01 91V146H2204.21Z" fill="white"/>
<path d="M2465.6 148.4C2458.4 148.4 2451.26 147.133 2444.2 144.6C2437.26 141.933 2431.46 138.067 2426.8 133C2422.13 127.8 2419.53 121.4 2419 113.8H2449.6C2450.13 117.533 2451.86 120.467 2454.8 122.6C2457.86 124.6 2461.33 125.6 2465.2 125.6C2468.4 125.6 2471.2 125 2473.6 123.8C2476.13 122.467 2477.4 120.333 2477.4 117.4C2477.4 115 2476.26 113.133 2474 111.8C2471.73 110.333 2469.06 109.2 2466 108.4C2463.06 107.6 2460.46 106.933 2458.2 106.4C2451.93 104.8 2446.06 103 2440.6 101C2435.13 99 2430.66 96.0667 2427.2 92.2C2423.86 88.3333 2422.2 82.8667 2422.2 75.8C2422.2 69 2424.06 63.2667 2427.8 58.6C2431.53 53.9333 2436.53 50.4 2442.8 48C2449.06 45.6 2455.93 44.4 2463.4 44.4C2475.13 44.4 2484.8 47.3333 2492.4 53.2C2500.13 58.9333 2504.66 67.4667 2506 78.8H2477.4C2476.73 74.8 2475.06 71.9333 2472.4 70.2C2469.73 68.3333 2466.4 67.4 2462.4 67.4C2459.46 67.4 2456.86 68 2454.6 69.2C2452.33 70.2667 2451.2 72.2667 2451.2 75.2C2451.2 77.6 2452.26 79.5333 2454.4 81C2456.66 82.3333 2459.26 83.3333 2462.2 84C2465.13 84.6667 2467.8 85.3333 2470.2 86C2476.6 87.6 2482.46 89.4667 2487.8 91.6C2493.26 93.7333 2497.73 96.8 2501.2 100.8C2504.66 104.667 2506.46 110.267 2506.6 117.6C2506.6 124.133 2504.66 129.733 2500.8 134.4C2497.06 138.933 2492.06 142.4 2485.8 144.8C2479.66 147.2 2472.93 148.4 2465.6 148.4Z" fill="white"/>
<path d="M2545.74 148.4C2540.01 148.4 2534.67 147.267 2529.74 145C2524.81 142.6 2520.81 139.2 2517.74 134.8C2514.81 130.267 2513.34 124.8 2513.34 118.4C2513.34 111.067 2515.27 105.133 2519.14 100.6C2523.01 95.9333 2528.14 92.5333 2534.54 90.4C2541.07 88.2667 2548.21 87.2 2555.94 87.2H2578.34C2578.34 83.7333 2577.74 80.6667 2576.54 78C2575.34 75.3333 2573.54 73.2667 2571.14 71.8C2568.74 70.2 2565.74 69.4 2562.14 69.4C2558.41 69.4 2555.01 70.2 2551.94 71.8C2548.87 73.4 2546.94 76.1333 2546.14 80H2516.34C2516.87 72.6667 2519.34 66.4 2523.74 61.2C2528.14 55.8667 2533.74 51.7333 2540.54 48.8C2547.47 45.8667 2554.87 44.4 2562.74 44.4C2571.94 44.4 2580.01 46.1333 2586.94 49.6C2594.01 52.9333 2599.47 57.8 2603.34 64.2C2607.21 70.4667 2609.14 78.0667 2609.14 87V112.4C2609.14 115.333 2609.54 117.6 2610.34 119.2C2611.27 120.8 2613.61 121.6 2617.34 121.6V146C2610.94 146 2605.61 145.6 2601.34 144.8C2597.07 144 2593.47 142.533 2590.54 140.4C2587.61 138.133 2584.94 134.867 2582.54 130.6C2578.14 136.467 2572.94 140.933 2566.94 144C2560.94 146.933 2553.87 148.4 2545.74 148.4ZM2556.54 124.8C2560.41 124.8 2563.94 124 2567.14 122.4C2570.47 120.667 2573.14 118.267 2575.14 115.2C2577.14 112.133 2578.14 108.667 2578.14 104.8V103.6H2559.14C2556.47 103.6 2554.01 104 2551.74 104.8C2549.47 105.467 2547.67 106.6 2546.34 108.2C2545.01 109.667 2544.34 111.733 2544.34 114.4C2544.34 118.267 2545.61 121 2548.14 122.6C2550.67 124.067 2553.47 124.8 2556.54 124.8Z" fill="white"/>
<path d="M2639.75 38C2634.55 38 2630.08 36.1333 2626.35 32.4C2622.62 28.6667 2620.75 24.2 2620.75 19C2620.75 13.8 2622.62 9.33333 2626.35 5.6C2630.08 1.86667 2634.55 0 2639.75 0C2645.22 0 2649.75 1.86667 2653.35 5.6C2656.95 9.33333 2658.75 13.8 2658.75 19C2658.75 24.2 2656.95 28.6667 2653.35 32.4C2649.75 36.1333 2645.22 38 2639.75 38ZM2624.35 146V46.8H2655.15V146H2624.35Z" fill="white"/>
<path d="M2667.3 146V46.8H2698.1V62.2C2701.57 57.1333 2705.97 52.9333 2711.3 49.6C2716.63 46.1333 2722.77 44.4 2729.7 44.4V77H2721.1C2713.37 77 2707.57 78.7333 2703.7 82.2C2699.97 85.6667 2698.1 91.4 2698.1 99.4V146H2667.3Z" fill="white"/>
<path d="M2821.02 148.4C2811.68 148.4 2803.68 146 2797.02 141.2C2790.35 136.4 2785.22 130.067 2781.62 122.2C2778.15 114.2 2776.42 105.533 2776.42 96.2C2776.42 86.8667 2778.22 78.2667 2781.82 70.4C2785.42 62.5333 2790.55 56.2667 2797.22 51.6C2803.88 46.8 2811.82 44.4 2821.02 44.4C2827.28 44.4 2833.22 45.7333 2838.82 48.4C2844.42 50.9333 2848.88 54.7333 2852.22 59.8V5.99999H2883.22V146H2852.22V132.4C2848.88 137.867 2844.48 141.933 2839.02 144.6C2833.55 147.133 2827.55 148.4 2821.02 148.4ZM2830.02 121.4C2834.15 121.4 2837.88 120.4 2841.22 118.4C2844.55 116.4 2847.22 113.533 2849.22 109.8C2851.22 105.933 2852.22 101.467 2852.22 96.4C2852.22 91.4667 2851.28 87.1333 2849.42 83.4C2847.55 79.6667 2844.95 76.7333 2841.62 74.6C2838.28 72.4667 2834.42 71.4 2830.02 71.4C2826.68 71.4 2823.28 72.2 2819.82 73.8C2816.48 75.4 2813.68 78.0667 2811.42 81.8C2809.15 85.4 2808.02 90.2 2808.02 96.2C2808.02 100.867 2808.88 105.133 2810.62 109C2812.48 112.733 2815.02 115.733 2818.22 118C2821.55 120.267 2825.48 121.4 2830.02 121.4Z" fill="white"/>
<path d="M2943.43 148.4C2934.23 148.4 2925.77 146.467 2918.03 142.6C2910.3 138.6 2904.1 132.733 2899.43 125C2894.77 117.267 2892.43 107.733 2892.43 96.4C2892.43 85.0667 2894.7 75.5333 2899.23 67.8C2903.77 60.0667 2909.9 54.2667 2917.63 50.4C2925.37 46.4 2933.97 44.4 2943.43 44.4C2953.3 44.4 2961.97 46.4667 2969.43 50.6C2977.03 54.6 2982.97 60.4 2987.23 68C2991.63 75.4667 2993.83 84.4 2993.83 94.8C2993.83 96.1333 2993.77 97.6 2993.63 99.2C2993.63 100.667 2993.5 102.2 2993.23 103.8H2923.23C2923.63 108.6 2924.77 112.4 2926.63 115.2C2928.63 118 2931.03 120.067 2933.83 121.4C2936.77 122.6 2939.63 123.2 2942.43 123.2C2946.3 123.2 2949.57 122.4 2952.23 120.8C2954.9 119.2 2956.97 116.733 2958.43 113.4H2991.43C2989.97 119.667 2987.03 125.467 2982.63 130.8C2978.23 136.133 2972.7 140.4 2966.03 143.6C2959.5 146.8 2951.97 148.4 2943.43 148.4ZM2923.23 86.6H2962.03C2962.03 81.1333 2960.23 76.8667 2956.63 73.8C2953.03 70.7333 2948.5 69.2 2943.03 69.2C2937.7 69.2 2933.3 70.8 2929.83 74C2926.37 77.0667 2924.17 81.2667 2923.23 86.6Z" fill="white"/>
<path d="M3092.65 148.4C3082.65 148.4 3073.85 146.267 3066.25 142C3058.65 137.733 3052.65 131.733 3048.25 124C3043.98 116.133 3041.85 106.933 3041.85 96.4C3041.85 86.2667 3043.91 77.3333 3048.05 69.6C3052.18 61.7333 3058.05 55.6 3065.65 51.2C3073.25 46.6667 3082.25 44.4 3092.65 44.4C3104.38 44.4 3114.65 47.4667 3123.45 53.6C3132.25 59.6 3138.18 69.2 3141.25 82.4H3108.25C3106.91 78.5333 3104.85 75.6667 3102.05 73.8C3099.38 71.8 3096.05 70.8 3092.05 70.8C3087.65 70.8 3084.05 72 3081.25 74.4C3078.58 76.8 3076.58 79.9333 3075.25 83.8C3074.05 87.6667 3073.45 91.8667 3073.45 96.4C3073.45 100.8 3074.05 105 3075.25 109C3076.58 112.867 3078.58 116 3081.25 118.4C3084.05 120.8 3087.65 122 3092.05 122C3096.05 122 3099.38 121 3102.05 119C3104.85 117 3106.91 114.133 3108.25 110.4H3141.25C3139.38 118.533 3136.18 125.4 3131.65 131C3127.11 136.6 3121.51 140.933 3114.85 144C3108.31 146.933 3100.91 148.4 3092.65 148.4Z" fill="white"/>
<path d="M3180.7 148.4C3174.97 148.4 3169.63 147.267 3164.7 145C3159.77 142.6 3155.77 139.2 3152.7 134.8C3149.77 130.267 3148.3 124.8 3148.3 118.4C3148.3 111.067 3150.23 105.133 3154.1 100.6C3157.97 95.9333 3163.1 92.5333 3169.5 90.4C3176.03 88.2667 3183.17 87.2 3190.9 87.2H3213.3C3213.3 83.7333 3212.7 80.6667 3211.5 78C3210.3 75.3333 3208.5 73.2667 3206.1 71.8C3203.7 70.2 3200.7 69.4 3197.1 69.4C3193.37 69.4 3189.97 70.2 3186.9 71.8C3183.83 73.4 3181.9 76.1333 3181.1 80H3151.3C3151.83 72.6667 3154.3 66.4 3158.7 61.2C3163.1 55.8667 3168.7 51.7333 3175.5 48.8C3182.43 45.8667 3189.83 44.4 3197.7 44.4C3206.9 44.4 3214.97 46.1333 3221.9 49.6C3228.97 52.9333 3234.43 57.8 3238.3 64.2C3242.17 70.4667 3244.1 78.0667 3244.1 87V112.4C3244.1 115.333 3244.5 117.6 3245.3 119.2C3246.23 120.8 3248.57 121.6 3252.3 121.6V146C3245.9 146 3240.57 145.6 3236.3 144.8C3232.03 144 3228.43 142.533 3225.5 140.4C3222.57 138.133 3219.9 134.867 3217.5 130.6C3213.1 136.467 3207.9 140.933 3201.9 144C3195.9 146.933 3188.83 148.4 3180.7 148.4ZM3191.5 124.8C3195.37 124.8 3198.9 124 3202.1 122.4C3205.43 120.667 3208.1 118.267 3210.1 115.2C3212.1 112.133 3213.1 108.667 3213.1 104.8V103.6H3194.1C3191.43 103.6 3188.97 104 3186.7 104.8C3184.43 105.467 3182.63 106.6 3181.3 108.2C3179.97 109.667 3179.3 111.733 3179.3 114.4C3179.3 118.267 3180.57 121 3183.1 122.6C3185.63 124.067 3188.43 124.8 3191.5 124.8Z" fill="white"/>
<path d="M3301.53 148.4C3294.33 148.4 3287.2 147.133 3280.13 144.6C3273.2 141.933 3267.4 138.067 3262.73 133C3258.07 127.8 3255.47 121.4 3254.93 113.8H3285.53C3286.07 117.533 3287.8 120.467 3290.73 122.6C3293.8 124.6 3297.27 125.6 3301.13 125.6C3304.33 125.6 3307.13 125 3309.53 123.8C3312.07 122.467 3313.33 120.333 3313.33 117.4C3313.33 115 3312.2 113.133 3309.93 111.8C3307.67 110.333 3305 109.2 3301.93 108.4C3299 107.6 3296.4 106.933 3294.13 106.4C3287.87 104.8 3282 103 3276.53 101C3271.07 99 3266.6 96.0667 3263.13 92.2C3259.8 88.3333 3258.13 82.8667 3258.13 75.8C3258.13 69 3260 63.2667 3263.73 58.6C3267.47 53.9333 3272.47 50.4 3278.73 48C3285 45.6 3291.87 44.4 3299.33 44.4C3311.07 44.4 3320.73 47.3333 3328.33 53.2C3336.07 58.9333 3340.6 67.4667 3341.93 78.8H3313.33C3312.67 74.8 3311 71.9333 3308.33 70.2C3305.67 68.3333 3302.33 67.4 3298.33 67.4C3295.4 67.4 3292.8 68 3290.53 69.2C3288.27 70.2667 3287.13 72.2667 3287.13 75.2C3287.13 77.6 3288.2 79.5333 3290.33 81C3292.6 82.3333 3295.2 83.3333 3298.13 84C3301.07 84.6667 3303.73 85.3333 3306.13 86C3312.53 87.6 3318.4 89.4667 3323.73 91.6C3329.2 93.7333 3333.67 96.8 3337.13 100.8C3340.6 104.667 3342.4 110.267 3342.53 117.6C3342.53 124.133 3340.6 129.733 3336.73 134.4C3333 138.933 3328 142.4 3321.73 144.8C3315.6 147.2 3308.87 148.4 3301.53 148.4Z" fill="white"/>
<path d="M3381.68 148.4C3375.94 148.4 3370.61 147.267 3365.68 145C3360.74 142.6 3356.74 139.2 3353.68 134.8C3350.74 130.267 3349.28 124.8 3349.28 118.4C3349.28 111.067 3351.21 105.133 3355.08 100.6C3358.94 95.9333 3364.08 92.5333 3370.48 90.4C3377.01 88.2667 3384.14 87.2 3391.88 87.2H3414.28C3414.28 83.7333 3413.68 80.6667 3412.48 78C3411.28 75.3333 3409.48 73.2667 3407.08 71.8C3404.68 70.2 3401.68 69.4 3398.08 69.4C3394.34 69.4 3390.94 70.2 3387.88 71.8C3384.81 73.4 3382.88 76.1333 3382.08 80H3352.28C3352.81 72.6667 3355.28 66.4 3359.68 61.2C3364.08 55.8667 3369.68 51.7333 3376.48 48.8C3383.41 45.8667 3390.81 44.4 3398.68 44.4C3407.88 44.4 3415.94 46.1333 3422.88 49.6C3429.94 52.9333 3435.41 57.8 3439.28 64.2C3443.14 70.4667 3445.08 78.0667 3445.08 87V112.4C3445.08 115.333 3445.48 117.6 3446.28 119.2C3447.21 120.8 3449.54 121.6 3453.28 121.6V146C3446.88 146 3441.54 145.6 3437.28 144.8C3433.01 144 3429.41 142.533 3426.48 140.4C3423.54 138.133 3420.88 134.867 3418.48 130.6C3414.08 136.467 3408.88 140.933 3402.88 144C3396.88 146.933 3389.81 148.4 3381.68 148.4ZM3392.48 124.8C3396.34 124.8 3399.88 124 3403.08 122.4C3406.41 120.667 3409.08 118.267 3411.08 115.2C3413.08 112.133 3414.08 108.667 3414.08 104.8V103.6H3395.08C3392.41 103.6 3389.94 104 3387.68 104.8C3385.41 105.467 3383.61 106.6 3382.28 108.2C3380.94 109.667 3380.28 111.733 3380.28 114.4C3380.28 118.267 3381.54 121 3384.08 122.6C3386.61 124.067 3389.41 124.8 3392.48 124.8Z" fill="white"/>
<path d="M3478.05 148.4C3472.72 148.4 3468.25 146.533 3464.65 142.8C3461.05 139.067 3459.25 134.6 3459.25 129.4C3459.25 124.2 3461.05 119.733 3464.65 116C3468.25 112.267 3472.72 110.4 3478.05 110.4C3483.38 110.4 3487.92 112.267 3491.65 116C3495.38 119.733 3497.25 124.2 3497.25 129.4C3497.25 134.6 3495.38 139.067 3491.65 142.8C3487.92 146.533 3483.38 148.4 3478.05 148.4Z" fill="white"/>
</svg>
